<?xml version="1.0" standalone="no"?>
<!DOCTYPE svg PUBLIC "-//W3C//DTD SVG 20010904//EN"
 "http://www.w3.org/TR/2001/REC-SVG-20010904/DTD/svg10.dtd">
<svg version="1.0" xmlns="http://www.w3.org/2000/svg"
 width="227.000000pt" height="227.000000pt" viewBox="0 0 227.000000 227.000000"
 preserveAspectRatio="xMidYMid meet">
<metadata>
Created by potrace 1.11, written by Peter Selinger 2001-2013
</metadata>
<g transform="translate(0.000000,227.000000) scale(0.100000,-0.100000)"
fill="#000000" stroke="none">
<path d="M1050 2252 c-16 -8 -30 -19 -30 -24 0 -5 -4 -6 -10 -3 -5 3 -10 1
-10 -4 0 -6 -5 -11 -11 -11 -6 0 -25 -11 -43 -25 -18 -14 -36 -25 -40 -25 -10
0 -36 -27 -36 -37 0 -5 -22 -21 -50 -35 -27 -14 -46 -29 -42 -32 3 -4 -1 -4
-11 0 -9 3 -17 2 -17 -3 0 -5 -6 -10 -13 -10 -14 0 -130 -71 -135 -83 -2 -4
-12 -5 -24 -2 -12 3 -19 1 -16 -4 4 -5 -10 -10 -30 -10 -57 -3 -92 -8 -92 -14
0 -3 -10 -6 -22 -7 -13 0 -34 -3 -48 -6 -14 -3 -34 -6 -45 -6 -17 -1 -18 -3
-5 -11 11 -8 8 -9 -12 -4 -18 4 -28 2 -28 -6 0 -6 -4 -8 -10 -5 -5 3 -10 -3
-11 -14 -3 -56 -2 -66 8 -64 6 1 10 -5 9 -15 0 -9 4 -16 11 -15 8 2 10 -4 6
-14 -4 -10 -2 -14 4 -10 7 4 11 -2 11 -16 0 -12 1 -59 2 -103 1 -58 -3 -91
-14 -113 -9 -17 -14 -31 -11 -31 3 0 1 -10 -6 -21 -9 -17 -8 -20 3 -13 10 6
11 5 2 -7 -12 -17 -18 -243 -5 -235 4 3 7 -6 5 -19 -1 -14 2 -27 6 -30 5 -3 7
-12 3 -20 -3 -8 0 -15 7 -15 6 0 8 -4 5 -10 -7 -11 24 -75 52 -107 14 -16 28
-21 49 -19 16 2 34 4 40 5 11 1 13 8 16 56 1 14 6 25 11 25 5 0 7 6 4 14 -6
15 29 30 38 16 3 -5 21 -8 41 -6 19 1 37 -2 41 -6 3 -5 11 -7 19 -4 8 3 14 1
14 -5 0 -6 5 -7 10 -4 6 3 10 0 10 -7 0 -9 3 -9 10 2 7 11 10 11 10 2 0 -7 5
-10 10 -7 6 3 10 0 10 -7 0 -11 2 -10 9 0 7 11 10 10 15 -3 9 -25 8 -28 -16
-22 -12 3 -29 2 -39 -4 -15 -8 -17 -17 -12 -62 4 -28 7 -62 7 -74 1 -11 4 -19
9 -16 4 2 7 -8 7 -22 0 -16 4 -24 10 -20 7 4 10 -6 8 -29 -1 -20 -7 -36 -14
-36 -13 0 -36 55 -27 64 4 3 1 6 -5 6 -7 0 -12 9 -12 19 0 14 -6 19 -20 16
-11 -2 -20 0 -20 5 0 9 -26 7 -36 -3 -11 -11 -12 -220 -2 -241 7 -13 7 -16 -1
-12 -12 8 -15 -6 -4 -18 11 -11 12 -37 1 -34 -5 2 -8 6 -6 10 2 3 -5 14 -14
24 -17 20 -18 22 -18 53 0 13 -6 18 -17 16 -10 -1 -23 2 -30 7 -7 5 -14 5 -18
-2 -3 -6 -10 -8 -15 -5 -10 6 -23 -29 -23 -60 0 -51 16 -215 25 -260 17 -80
95 -219 148 -265 3 -3 19 -22 34 -42 24 -32 34 -38 66 -38 25 0 43 7 56 21 39
43 231 123 321 134 26 3 68 8 93 11 25 3 51 6 59 6 13 1 44 60 44 86 0 6 4 12
8 12 4 0 18 17 30 38 13 20 26 39 29 42 3 3 16 18 28 34 75 97 232 245 296
276 61 31 70 41 90 90 32 81 90 151 152 184 71 38 93 67 115 153 14 55 16 99
13 233 -2 91 -6 181 -9 201 -5 47 -34 119 -48 119 -6 0 -8 3 -4 6 3 4 -12 31
-33 62 -22 30 -40 60 -40 65 0 6 -8 19 -17 30 -13 15 -14 18 -3 12 11 -6 10
-3 -2 12 -10 11 -18 23 -18 28 0 4 -14 21 -32 37 -17 15 -28 28 -23 28 4 0 -2
8 -13 19 -12 10 -22 24 -22 30 0 7 -4 10 -9 7 -5 -3 -11 1 -15 9 -3 8 -12 15
-21 15 -8 0 -15 4 -15 9 0 5 -9 11 -20 14 -13 3 -18 1 -13 -6 4 -7 -4 -5 -17
4 -37 23 -63 31 -54 16 4 -6 -2 -4 -13 6 -11 9 -27 17 -37 17 -9 0 -30 7 -45
15 -16 8 -32 11 -36 7 -5 -4 -5 -1 -1 6 6 10 -7 18 -17 10 -2 -2 -12 5 -22 15
-9 10 -24 16 -32 13 -8 -3 -11 -1 -8 4 3 6 -6 15 -20 20 -15 6 -33 17 -41 25
-8 8 -22 11 -31 8 -10 -4 -14 -2 -10 4 4 6 -12 16 -36 23 -23 8 -49 19 -57 26
-21 16 -93 14 -130 -4z"/>
</g>
</svg>
